<svg width="11" height="29" viewBox="0 0 11 29" fill="none" xmlns="http://www.w3.org/2000/svg">
<path d="M7.52856 0.346419C7.47604 0.310308 7.41692 0.284896 7.35457 0.271634C7.29223 0.258372 7.22788 0.257521 7.1652 0.269128C7.10253 0.280734 7.04275 0.304572 6.98929 0.339279C6.93583 0.373987 6.88973 0.418884 6.85362 0.471409C6.8175 0.523934 6.79209 0.583058 6.77883 0.645403C6.76557 0.707749 6.76472 0.772095 6.77632 0.83477C6.78793 0.897444 6.81177 0.95722 6.84647 1.01068C6.88118 1.06414 6.92608 1.11025 6.97861 1.14636C7.81344 1.60936 8.45233 2.35905 8.77709 3.25674C9.10185 4.15443 9.0905 5.13936 8.74514 6.02932C8.50994 6.45744 8.18352 6.82863 7.78897 7.11661C7.39443 7.4046 6.94141 7.60235 6.46198 7.69586C1.46235 8.76245 0.345771 3.12954 3.12889 1.56299C3.62886 1.29635 5.22874 1.36301 5.34539 0.663062C5.35995 0.59191 5.36027 0.518579 5.34633 0.447303C5.33239 0.376028 5.30447 0.30822 5.26419 0.247792C5.2239 0.187365 5.17205 0.135515 5.11161 0.0952351C5.05118 0.0549552 4.98337 0.0270431 4.91209 0.0131108C4.21352 -0.0399387 3.51211 0.0684611 2.86215 0.329921C2.21219 0.591382 1.6311 0.998891 1.16386 1.52091C0.696622 2.04293 0.355763 2.66546 0.167664 3.34031C-0.020435 4.01517 -0.0507297 4.72426 0.0791251 5.4127C1.46235 11.7789 9.36176 10.1623 10.2284 6.51262C10.5689 5.3313 10.4853 4.06807 9.99224 2.94187C9.49914 1.81567 8.62757 0.897471 7.52856 0.346419Z" fill="#575E96"/>
<path fill-rule="evenodd" clip-rule="evenodd" d="M7.13006 19.1689C7.07859 18.2694 6.99496 17.3785 6.85879 16.4844C6.50192 14.4133 5.95684 12.379 5.23034 10.4069C5.1952 10.3082 5.12407 10.2263 5.03118 10.1777C4.93829 10.1291 4.83048 10.1174 4.72931 10.1448C4.67724 10.1587 4.62853 10.183 4.58609 10.2163C4.54366 10.2495 4.50839 10.291 4.4824 10.3382C4.45641 10.3854 4.44025 10.4374 4.43487 10.491C4.4295 10.5446 4.43503 10.5988 4.45114 10.6502C4.88928 12.6388 5.18231 14.6567 5.32793 16.6878L5.50472 19.277C5.56222 20.1347 5.60507 21.002 5.63329 21.8791C5.71991 23.9092 5.68941 25.9427 5.54193 27.9693C5.52817 28.0897 5.56184 28.2107 5.63582 28.3067C5.7098 28.4027 5.81825 28.4661 5.93819 28.4835C5.99847 28.4952 6.06054 28.4939 6.12029 28.4797C6.18004 28.4656 6.23609 28.4389 6.28472 28.4014C6.33336 28.3639 6.37346 28.3165 6.40237 28.2624C6.43127 28.2082 6.44832 28.1485 6.45238 28.0872C6.83929 26.0332 7.07689 23.9538 7.16331 21.8654C7.18046 20.9648 7.18153 20.0684 7.13006 19.1689Z" fill="#575E96"/>
</svg>
