<svg width="793" height="111" viewBox="0 0 793 111" fill="none" xmlns="http://www.w3.org/2000/svg">
<g clip-path="url(#clip0_7_43)">
<path d="M72.007 2.62671C75.8638 3.84844 79.5715 5.49878 83.0605 7.5468C81.7045 16.2899 79.282 24.8337 75.847 32.9873C70.1681 36.8349 65.1705 41.6026 61.0601 47.0943C62.4734 31.5073 65.7002 15.8003 72.007 2.62671Z" fill="#E89E64"/>
<path d="M99.2875 21.987C95.4313 23.1454 91.6544 24.5528 87.9806 26.2005C89.3203 22.0087 90.4198 17.7439 91.274 13.4269C94.2373 15.992 96.9232 18.8611 99.2875 21.987Z" fill="#E89E64"/>
<path d="M107.168 73.8148C103.759 83.2929 97.823 91.6578 90.0012 98.0036C82.1794 104.349 72.7705 108.434 62.7934 109.816C61.21 97.5597 60.3197 85.2243 60.1267 72.8681C60.7703 66.979 62.7199 61.3078 65.8335 56.2678C81.2416 56.6631 95.9344 62.8525 106.981 73.6015L107.168 73.8148Z" fill="#C78ED0"/>
<path d="M110.394 55.1878C110.399 58.1079 110.171 61.0238 109.714 63.9079C99.1639 54.8986 86.1642 49.2437 72.3802 47.6676C78.9137 40.8408 88.9139 34.174 104.221 29.9473C108.277 37.7423 110.395 46.4004 110.394 55.1878Z" fill="#C78ED0"/>
<path d="M31.2994 16.7604C27.7429 15.0473 24.0611 13.6075 20.2859 12.4536C23.6907 9.66388 27.42 7.29558 31.3928 5.40015C30.7966 9.16115 30.7652 12.9901 31.2994 16.7604Z" fill="#E89E64"/>
<path d="M51.0065 65.1346C49.0998 63.0413 43.7397 57.9878 32.9928 53.3344H32.8995C32.6195 53.3344 16.7392 53.7477 1.21887 66.7747C3.80403 78.8823 10.3843 89.7694 19.9025 97.6867C29.4206 105.604 41.324 110.092 53.6999 110.429C51.7311 95.4136 50.8311 80.2774 51.0065 65.1346ZM12.8991 19.8004C8.79703 24.7023 5.57593 30.2783 3.37892 36.2807C28.7128 39.5741 43.513 47.4276 51.4732 53.4011C51.4732 52.4677 51.5932 51.521 51.6732 50.5877C50.5532 46.6676 43.6597 27.3605 12.8991 19.8004ZM55.2333 0.0133364C50.6016 0.0115929 45.9879 0.589418 41.4997 1.73336C37.3929 15.507 42.833 23.2271 42.953 23.3205C43.1831 23.6324 43.3714 23.973 43.5131 24.3338C47.2776 27.295 50.6275 30.7481 53.4732 34.6007C55.1043 22.8733 58.3204 11.4218 63.0335 0.560009C60.4402 0.195973 57.8252 0.00887311 55.2066 0L55.2333 0.0133364Z" fill="#9C76CA"/>
<path d="M16.1125 47.801C10.3997 49.8897 4.99167 52.7327 0.0321864 56.2545C0.0321864 55.9078 0.0321864 55.5745 0.0321864 55.2278C0.00367876 51.8436 0.293856 48.4641 0.898872 45.1343C6.01573 45.7395 11.0948 46.6298 16.1125 47.801Z" fill="#E89E64"/>
</g>
<path d="M203.968 73.0738H191.304L189.336 83H176.757L191.133 23.1003H204.139L218.515 83H205.936L203.968 73.0738ZM201.572 61.5217L200.203 54.676C199.404 50.2834 198.606 44.8068 197.807 38.2464H197.465C196.495 45.9478 195.696 51.4243 195.069 54.676L193.7 61.5217H201.572ZM239.775 84.0269C233.899 84.0269 229.335 82.3725 226.084 79.0637C222.889 75.6979 221.292 70.906 221.292 64.6878V41.4125C221.292 35.1373 222.918 30.3168 226.169 26.951C229.421 23.5852 233.985 21.9024 239.861 21.9024C245.851 21.9024 250.471 23.5852 253.723 26.951C256.975 30.2598 258.715 35.0803 258.943 41.4125H246.792C246.621 38.6743 245.993 36.7061 244.909 35.5081C243.825 34.3101 242.114 33.7111 239.775 33.7111C235.896 33.7111 233.956 36.2783 233.956 41.4125V64.6878C233.956 69.708 235.896 72.2181 239.775 72.2181C242.114 72.2181 243.854 71.6191 244.995 70.4211C246.136 69.2231 246.792 67.312 246.963 64.6878H259.114C259 70.963 257.26 75.755 253.894 79.0637C250.585 82.3725 245.879 84.0269 239.775 84.0269ZM298.041 34.6524H286.318V83H273.824V34.6524H262.101V23.1003H298.041V34.6524ZM335.558 71.4479V83H303.811V23.1003H334.702V34.6524H315.962V47.0602H332.991V58.1844H315.962V71.4479H335.558ZM361.21 23.1003C367.428 23.1003 372.277 24.8973 375.757 28.4913C379.236 32.0853 380.976 37.0769 380.976 43.4662C380.976 49.8555 379.236 54.8472 375.757 58.4411C372.277 61.9781 367.428 63.7465 361.21 63.7465H355.99V83H343.839V23.1003H361.21ZM361.038 52.1945C363.491 52.1945 365.345 51.4528 366.6 49.9696C367.856 48.4864 368.483 46.3186 368.483 43.4662C368.483 40.5568 367.856 38.3605 366.6 36.8773C365.345 35.394 363.491 34.6524 361.038 34.6524H355.99V52.1945H361.038ZM385.975 56.0452H407.368V65.9714H385.975V56.0452ZM451.999 23.1003V83H439.762V58.6123H427.44V83H415.203V23.1003H427.44V47.0602H439.762V23.1003H451.999ZM484.748 73.0738H472.083L470.115 83H457.536L471.912 23.1003H484.919L499.295 83H486.716L484.748 73.0738ZM482.352 61.5217L480.983 54.676C480.184 50.2834 479.385 44.8068 478.587 38.2464H478.244C477.275 45.9478 476.476 51.4243 475.848 54.676L474.479 61.5217H482.352ZM534.305 52.3656C536.53 53.6206 538.27 55.3891 539.525 57.671C540.78 59.9529 541.408 62.4345 541.408 65.1157C541.408 68.6526 540.638 71.7902 539.097 74.5285C537.614 77.2097 535.532 79.2919 532.851 80.7752C530.227 82.2584 527.203 83 523.78 83H504.869V23.1003H523.524C526.604 23.1003 529.342 23.8134 531.738 25.2396C534.134 26.6658 535.988 28.6625 537.3 31.2296C538.67 33.7967 539.354 36.7632 539.354 40.129C539.354 42.4109 538.898 44.6642 537.985 46.8891C537.072 49.1139 535.846 50.9394 534.305 52.3656ZM517.02 34.5668V47.0602H521.812C523.524 47.0602 524.807 46.5183 525.663 45.4344C526.576 44.3505 527.032 42.7531 527.032 40.6424C527.032 38.5887 526.576 37.0769 525.663 36.1071C524.75 35.0803 523.324 34.5668 521.384 34.5668H517.02ZM521.641 71.5335C526.49 71.5335 528.915 69.3657 528.915 65.0301C528.915 62.8623 528.316 61.2365 527.118 60.1526C525.92 59.0116 524.18 58.4411 521.898 58.4411H517.02V71.5335H521.641ZM548.574 23.1003H560.383V36.9628C560.383 39.8722 560.24 43.6088 559.955 48.1726C559.669 52.6794 559.299 56.7297 558.842 60.3237L559.099 60.5804L560.639 56.3874C561.78 53.2498 562.721 50.8253 563.463 49.1139L574.844 23.1003H586.738V83H574.93V70.8489C574.93 67.312 575.044 63.0905 575.272 58.1844C575.557 53.2784 575.899 49.0283 576.299 45.4344L576.042 45.1776L574.502 49.4562C572.562 54.7045 571.25 58.1559 570.565 59.8103L560.468 83H548.574V23.1003ZM627.582 34.6524H609.527V83H597.376V23.1003H627.582V34.6524ZM651.461 73.0738H638.796L636.828 83H624.249L638.625 23.1003H651.632L666.008 83H653.429L651.461 73.0738ZM649.065 61.5217L647.696 54.676C646.897 50.2834 646.098 44.8068 645.3 38.2464H644.957C643.988 45.9478 643.189 51.4243 642.561 54.676L641.192 61.5217H649.065ZM700.074 34.6524H688.351V83H675.857V34.6524H664.134V23.1003H700.074V34.6524ZM724.393 84.0269C718.289 84.0269 713.525 82.2299 710.102 78.6359C706.679 74.9849 704.968 69.9647 704.968 63.5754V42.5249C704.968 36.1357 706.679 31.144 710.102 27.55C713.525 23.899 718.289 22.0735 724.393 22.0735C730.497 22.0735 735.26 23.899 738.683 27.55C742.106 31.144 743.817 36.1357 743.817 42.5249V63.5754C743.817 69.9647 742.106 74.9849 738.683 78.6359C735.26 82.2299 730.497 84.0269 724.393 84.0269ZM724.393 72.2181C726.674 72.2181 728.386 71.505 729.527 70.0788C730.668 68.5956 731.238 66.4278 731.238 63.5754V42.5249C731.238 39.6726 730.668 37.5333 729.527 36.1071C728.386 34.6239 726.674 33.8823 724.393 33.8823C722.111 33.8823 720.399 34.6239 719.258 36.1071C718.117 37.5333 717.547 39.6726 717.547 42.5249V63.5754C717.547 66.4278 718.117 68.5956 719.258 70.0788C720.399 71.505 722.111 72.2181 724.393 72.2181ZM770.095 23.1003C776.313 23.1003 781.162 24.8973 784.642 28.4913C788.122 32.0853 789.862 37.0769 789.862 43.4662C789.862 49.8555 788.122 54.8472 784.642 58.4411C781.162 61.9781 776.313 63.7465 770.095 63.7465H764.875V83H752.724V23.1003H770.095ZM769.924 52.1945C772.377 52.1945 774.231 51.4528 775.486 49.9696C776.741 48.4864 777.368 46.3186 777.368 43.4662C777.368 40.5568 776.741 38.3605 775.486 36.8773C774.231 35.394 772.377 34.6524 769.924 34.6524H764.875V52.1945H769.924Z" fill="#353535"/>
<path d="M141.8 70.1429H153.8L163.7 46.5715L173.6 23H161.343L151.914 45.7143C149.8 50.9715 148.486 54.4572 147.971 56.1715H147.629C147.114 54.4572 145.8 50.9715 143.686 45.7143L134.257 23H122V83.0001H133.829V68.2572L132.971 46.4L133.4 46.2286L138.8 62L141.8 70.1429Z" fill="#9C76CA"/>
<path d="M175.174 82.5V23L150.674 82.5H161.174H175.174Z" fill="#C78ED0"/>
<defs>
<clipPath id="clip0_7_43">
<rect width="110.4" height="110.362" fill="white"/>
</clipPath>
</defs>
</svg>
