<svg width="428" height="216" viewBox="0 0 428 216" fill="none" xmlns="http://www.w3.org/2000/svg">
<g clip-path="url(#clip0_7_70)">
<path d="M55.5017 28.9517C58.3673 29.8594 61.1222 31.0856 63.7145 32.6073C62.707 39.1035 60.9071 45.4517 58.3549 51.5098C54.1354 54.3686 50.4221 57.911 47.368 61.9914C48.4182 50.4102 50.8157 38.7397 55.5017 28.9517Z" fill="#E89E64"/>
<path d="M75.7713 43.3365C72.9062 44.1972 70.0999 45.2429 67.3702 46.4671C68.3656 43.3526 69.1826 40.1838 69.8173 36.9763C72.0191 38.8822 74.0147 41.0139 75.7713 43.3365Z" fill="#E89E64"/>
<path d="M81.6264 81.8449C79.094 88.8872 74.6832 95.1024 68.8715 99.8174C63.0599 104.532 56.069 107.567 48.656 108.594C47.4795 99.4876 46.8179 90.3223 46.6746 81.1416C47.1527 76.7659 48.6013 72.5521 50.9147 68.8074C62.3631 69.101 73.28 73.6998 81.4877 81.6864L81.6264 81.8449Z" fill="#C78ED0"/>
<path d="M84.0238 68.0049C84.0269 70.1745 83.858 72.3411 83.5186 74.484C75.6795 67.79 66.0206 63.5884 55.7791 62.4173C60.6335 57.345 68.0637 52.3915 79.4369 49.251C82.4509 55.0428 84.0243 61.4758 84.0238 68.0049Z" fill="#C78ED0"/>
<path d="M25.2557 39.453C22.6131 38.1802 19.8775 37.1104 17.0725 36.2531C19.6023 34.1803 22.3732 32.4206 25.325 31.0123C24.8821 33.8067 24.8587 36.6517 25.2557 39.453Z" fill="#E89E64"/>
<path d="M39.8983 75.3956C38.4816 73.8402 34.499 70.0854 26.514 66.6279H26.4446C26.2366 66.6279 14.4374 66.935 2.90564 76.6141C4.82643 85.6102 9.71565 93.6994 16.7877 99.582C23.8598 105.465 32.704 108.799 41.8995 109.05C40.4366 97.8931 39.7679 86.6468 39.8983 75.3956ZM11.5841 41.7119C8.53627 45.354 6.14297 49.497 4.51057 53.9569C23.3338 56.4039 34.3305 62.2391 40.245 66.6774C40.245 65.9839 40.3342 65.2805 40.3936 64.587C39.5614 61.6744 34.4395 47.3291 11.5841 41.7119ZM43.0388 27.0099C39.5974 27.0086 36.1694 27.4379 32.8346 28.2879C29.7833 38.5218 33.8253 44.2579 33.9145 44.3273C34.0854 44.559 34.2253 44.8122 34.3306 45.0802C37.1276 47.2804 39.6167 49.8461 41.7311 52.7086C42.9429 43.9951 45.3325 35.4865 48.8344 27.4161C46.9076 27.1456 44.9646 27.0066 43.019 27L43.0388 27.0099Z" fill="#9C76CA"/>
<path d="M13.9717 62.5166C9.72701 64.0685 5.70882 66.1809 2.02388 68.7976C2.02388 68.54 2.02388 68.2923 2.02388 68.0347C2.0027 65.5202 2.2183 63.0093 2.66784 60.5352C6.46971 60.9849 10.2435 61.6464 13.9717 62.5166Z" fill="#E89E64"/>
</g>
<path d="M44.2842 120.045V186H34.7678V157.074H16.1119V186H6.59552V120.045H16.1119V148.123H34.7678V120.045H44.2842ZM83.8609 172.715H66.4299L63.4149 186H53.4274L70.0104 120.045H80.2805L96.8635 186H86.9703L83.8609 172.715ZM81.8823 163.858L77.7365 146.144C76.7943 141.747 75.9777 137.036 75.2868 132.011H75.0041C74.1875 137.978 73.3709 142.689 72.5544 146.144L68.5028 163.858H81.8823ZM134.796 152.08C137.622 153.274 139.852 155.19 141.486 157.828C143.119 160.466 143.935 163.575 143.935 167.156C143.935 172.997 142.208 177.614 138.753 181.006C135.298 184.335 130.681 186 124.903 186H106.058V120.045H123.96C129.3 120.045 133.54 121.678 136.68 124.944C139.884 128.148 141.486 132.482 141.486 137.947C141.486 141.088 140.889 143.914 139.695 146.427C138.502 148.877 136.869 150.761 134.796 152.08ZM115.575 128.996V147.934H123.112C128.891 147.934 131.781 144.7 131.781 138.23C131.781 135.089 131.058 132.765 129.614 131.257C128.169 129.75 125.908 128.996 122.83 128.996H115.575ZM123.678 177.049C130.713 177.049 134.231 173.751 134.231 167.156C134.231 163.827 133.257 161.283 131.31 159.524C129.362 157.765 126.693 156.886 123.301 156.886H115.575V177.049H123.678ZM154.777 120.045H164.105V148.877C164.105 151.452 164.011 154.593 163.823 158.299C163.634 162.005 163.383 165.208 163.069 167.909L163.352 168.098C165.55 162.319 167.12 158.424 168.063 156.414L184.08 120.045H193.785V186H184.457V157.262C184.457 154.75 184.52 151.578 184.646 147.746C184.834 143.914 185.054 140.648 185.305 137.947L185.023 137.759C183.138 142.972 181.568 147.024 180.312 149.913L164.388 186H154.777V120.045ZM240.398 129.09H218.35V186H208.833V120.045H240.398V129.09ZM269.813 172.715H252.382L249.366 186H239.379L255.962 120.045H266.232L282.815 186H272.922L269.813 172.715ZM267.834 163.858L263.688 146.144C262.746 141.747 261.929 137.036 261.238 132.011H260.956C260.139 137.978 259.323 142.689 258.506 146.144L254.454 163.858H267.834ZM320.643 129.09H306.887V186H297.182V129.09H283.52V120.045H320.643V129.09ZM348.887 187.225C342.605 187.225 337.674 185.278 334.094 181.383C330.513 177.426 328.723 171.992 328.723 165.083V140.962C328.723 134.052 330.513 128.65 334.094 124.756C337.674 120.799 342.605 118.82 348.887 118.82C355.168 118.82 360.099 120.799 363.679 124.756C367.26 128.65 369.05 134.052 369.05 140.962V165.083C369.05 171.992 367.26 177.426 363.679 181.383C360.099 185.278 355.168 187.225 348.887 187.225ZM348.887 177.897C352.279 177.897 354.854 176.798 356.613 174.599C358.372 172.401 359.251 169.229 359.251 165.083V140.962C359.251 136.816 358.372 133.644 356.613 131.446C354.854 129.247 352.279 128.148 348.887 128.148C345.495 128.148 342.919 129.247 341.16 131.446C339.402 133.644 338.522 136.816 338.522 140.962V165.083C338.522 169.229 339.402 172.401 341.16 174.599C342.919 176.798 345.495 177.897 348.887 177.897ZM399.702 120.045C406.172 120.045 411.166 121.929 414.683 125.698C418.201 129.404 419.96 134.618 419.96 141.339C419.96 148.249 418.201 153.556 414.683 157.262C411.166 160.968 406.172 162.821 399.702 162.821H391.788V186H382.271V120.045H399.702ZM399.608 153.776C403.188 153.776 405.858 152.771 407.617 150.761C409.376 148.688 410.255 145.548 410.255 141.339C410.255 133.173 406.706 129.09 399.608 129.09H391.788V153.776H399.608Z" fill="#3E1F63"/>
<path d="M154.129 27.2782V109H146.89V65.8042C146.89 57.632 147.124 49.9268 147.591 42.6886L147.124 42.5718C146.423 44.6732 144.789 48.8761 142.221 55.1803L138.718 64.053L128.678 89.737H121.44L111.4 64.053L107.897 55.1803C105.329 48.8761 103.695 44.6732 102.994 42.5718L102.527 42.6886C102.994 49.9268 103.228 57.632 103.228 65.8042V109H95.9894V27.2782H103.695L118.288 62.5353C120.156 67.2051 122.335 73.2759 124.826 80.7476H125.293C127.783 73.2759 129.962 67.2051 131.83 62.5353L146.423 27.2782H154.129ZM202.852 89.8537H176.934L172.148 109H164.442L185.924 27.2782H193.862L215.343 109H207.638L202.852 89.8537ZM201.217 83.316L192.812 49.4598C191.644 44.9456 190.71 40.665 190.01 36.6178H189.776C189.076 40.665 188.142 44.9456 186.974 49.4598L178.569 83.316H201.217ZM244.102 110.401C237.409 110.401 231.999 108.261 227.874 103.98C223.827 99.6214 221.804 93.5896 221.804 85.8844V50.3938C221.804 42.6886 223.788 36.6956 227.758 32.415C231.805 28.0565 237.097 25.8772 243.635 25.8772C250.328 25.8772 255.66 27.9397 259.629 32.0647C263.676 36.1119 265.894 41.9103 266.284 49.4598H259.279C258.89 43.7782 257.333 39.5364 254.609 36.7346C251.963 33.8548 248.305 32.415 243.635 32.415C239.121 32.415 235.502 33.9327 232.778 36.968C230.131 40.0034 228.808 44.4787 228.808 50.3938V85.8844C228.808 91.7995 230.17 96.2747 232.894 99.3101C235.696 102.346 239.432 103.863 244.102 103.863C253.519 103.863 258.812 98.1816 259.979 86.8184H266.984C266.361 94.2901 264.065 100.088 260.096 104.213C256.127 108.338 250.795 110.401 244.102 110.401ZM316.194 34.0494H298.215V109H290.977V34.0494H272.998V27.2782H316.194V34.0494ZM366.657 102.346V109H327.314V27.2782H365.373V33.9327H334.552V64.1697H363.389V70.8242H334.552V102.346H366.657ZM399.942 27.2782C407.413 27.2782 413.173 29.4574 417.22 33.8159C421.267 38.1744 423.291 44.3619 423.291 52.3784C423.291 60.7841 421.267 67.1662 417.22 71.5247C413.251 75.8832 407.491 78.0624 399.942 78.0624H387.567V109H380.328V27.2782H399.942ZM399.942 71.1745C405.468 71.1745 409.515 69.6568 412.083 66.6214C414.729 63.586 416.053 58.8384 416.053 52.3784C416.053 46.3077 414.729 41.7546 412.083 38.7192C409.437 35.6838 405.39 34.1662 399.942 34.1662H387.567V71.1745H399.942Z" fill="#3E1F63"/>
<defs>
<clipPath id="clip0_7_70">
<rect width="82.0281" height="82" fill="white" transform="translate(2 27)"/>
</clipPath>
</defs>
</svg>
