<svg width="317" height="118" viewBox="0 0 317 118" fill="none" xmlns="http://www.w3.org/2000/svg">
<g clip-path="url(#clip0_8_84)">
<g clip-path="url(#clip1_8_84)">
<path d="M41.1123 1.44568C43.235 2.11809 45.2756 3.0264 47.1959 4.15358C46.4496 8.96555 45.1163 13.6679 43.2258 18.1554C40.1002 20.273 37.3497 22.8971 35.0874 25.9196C35.8653 17.3409 37.6412 8.69611 41.1123 1.44568Z" fill="#E89E64"/>
<path d="M56.1269 12.1011C54.0045 12.7386 51.9258 13.5133 49.9038 14.4201C50.6411 12.113 51.2463 9.7658 51.7164 7.38983C53.3474 8.80161 54.8256 10.3807 56.1269 12.1011Z" fill="#E89E64"/>
<path d="M60.4639 40.6259C58.5882 45.8424 55.3209 50.4463 51.0159 53.9388C46.711 57.4314 41.5326 59.6796 36.0414 60.4398C35.1699 53.6945 34.6799 46.9054 34.5737 40.1049C34.9279 36.8636 36.001 33.7423 37.7146 30.9684C46.1949 31.186 54.2815 34.5925 60.3612 40.5085L60.4639 40.6259Z" fill="#C78ED0"/>
<path d="M62.2399 30.374C62.2422 31.9812 62.1171 33.586 61.8657 35.1734C56.0589 30.2148 48.9042 27.1025 41.3179 26.2351C44.9137 22.4778 50.4176 18.8085 58.8422 16.4822C61.0748 20.7725 62.2403 25.5376 62.2399 30.374Z" fill="#C78ED0"/>
<path d="M18.7078 9.22445C16.7504 8.2816 14.724 7.48919 12.6462 6.85411C14.5202 5.31871 16.5727 4.01525 18.7592 2.97205C18.4311 5.04201 18.4138 7.14937 18.7078 9.22445Z" fill="#E89E64"/>
<path d="M29.5543 35.8486C28.5049 34.6964 25.5548 31.9151 19.64 29.354H19.5886C19.4345 29.354 10.6944 29.5815 2.15234 36.7512C3.57515 43.415 7.1968 49.407 12.4354 53.7644C17.6739 58.1219 24.2252 60.5919 31.0367 60.7774C29.9531 52.5134 29.4577 44.1828 29.5543 35.8486ZM8.58087 10.8977C6.32318 13.5956 4.55036 16.6645 3.34118 19.968C17.2843 21.7807 25.4301 26.103 29.8111 29.3907C29.8111 28.877 29.8772 28.3559 29.9212 27.8423C29.3048 25.6847 25.5108 15.0586 8.58087 10.8977ZM31.8806 0.00734006C29.3314 0.00638044 26.7921 0.324401 24.3219 0.954001C22.0617 8.53467 25.0558 12.7837 25.1218 12.835C25.2485 13.0067 25.3521 13.1942 25.4301 13.3928C27.502 15.0225 29.3457 16.923 30.9119 19.0434C31.8096 12.5889 33.5797 6.28629 36.1736 0.308216C34.7464 0.107859 33.3071 0.00488355 31.8659 0L31.8806 0.00734006Z" fill="#9C76CA"/>
<path d="M10.3493 26.3086C7.20512 27.4582 4.22868 29.0229 1.4991 30.9612C1.4991 30.7704 1.4991 30.5869 1.4991 30.3961C1.48341 28.5335 1.64312 26.6736 1.9761 24.8409C4.7923 25.174 7.58772 25.664 10.3493 26.3086Z" fill="#E89E64"/>
</g>
<path d="M32.8031 68.7369V117.593H25.7539V96.1659H11.9347V117.593H4.88557V68.7369H11.9347V89.5355H25.7539V68.7369H32.8031ZM62.1192 107.752H49.2074L46.974 117.593H39.5758L51.8595 68.7369H59.4671L71.7508 117.593H64.4224L62.1192 107.752ZM60.6536 101.191L57.5826 88.0698C56.8847 84.8128 56.2798 81.3231 55.768 77.6007H55.5586C54.9537 82.021 54.3488 85.5107 53.744 88.0698L50.7428 101.191H60.6536ZM99.8488 92.4668C101.943 93.3509 103.594 94.77 104.804 96.7242C106.014 98.6785 106.619 100.982 106.619 103.634C106.619 107.961 105.339 111.381 102.78 113.894C100.221 116.36 96.8011 117.593 92.5204 117.593H78.5617V68.7369H91.8225C95.7775 68.7369 98.9182 69.9467 101.245 72.3662C103.618 74.7392 104.804 77.9497 104.804 81.9977C104.804 84.3242 104.362 86.418 103.478 88.2792C102.594 90.0938 101.384 91.4897 99.8488 92.4668ZM85.6108 75.3673V89.3959H91.1944C95.475 89.3959 97.6154 86.9996 97.6154 82.2071C97.6154 79.8807 97.0803 78.1591 96.0101 77.0424C94.94 75.9257 93.2649 75.3673 90.985 75.3673H85.6108ZM91.6131 110.962C96.8244 110.962 99.43 108.519 99.43 103.634C99.43 101.168 98.7088 99.2833 97.2664 97.9805C95.824 96.6777 93.8465 96.0263 91.3339 96.0263H85.6108V110.962H91.6131ZM114.65 68.7369H121.56V90.0938C121.56 92.0015 121.49 94.328 121.35 97.0732C121.211 99.8184 121.024 102.191 120.792 104.192L121.001 104.332C122.63 100.051 123.793 97.1663 124.491 95.6773L136.356 68.7369H143.545V117.593H136.635V96.3055C136.635 94.4443 136.682 92.0946 136.775 89.2563C136.914 86.418 137.077 83.9985 137.263 81.9977L137.054 81.8582C135.658 85.7201 134.495 88.7212 133.564 90.8616L121.769 117.593H114.65V68.7369ZM178.072 75.4371H161.741V117.593H154.691V68.7369H178.072V75.4371ZM199.861 107.752H186.949L184.716 117.593H177.318L189.601 68.7369H197.209L209.493 117.593H202.164L199.861 107.752ZM198.395 101.191L195.325 88.0698C194.627 84.8128 194.022 81.3231 193.51 77.6007H193.301C192.696 82.021 192.091 85.5107 191.486 88.0698L188.485 101.191H198.395ZM237.513 75.4371H227.323V117.593H220.135V75.4371H210.014V68.7369H237.513V75.4371ZM258.435 118.5C253.782 118.5 250.129 117.058 247.477 114.173C244.825 111.241 243.499 107.217 243.499 102.098V84.2311C243.499 79.1129 244.825 75.1114 247.477 72.2266C250.129 69.2953 253.782 67.8296 258.435 67.8296C263.087 67.8296 266.74 69.2953 269.392 72.2266C272.044 75.1114 273.37 79.1129 273.37 84.2311V102.098C273.37 107.217 272.044 111.241 269.392 114.173C266.74 117.058 263.087 118.5 258.435 118.5ZM258.435 111.59C260.947 111.59 262.855 110.776 264.158 109.148C265.46 107.519 266.112 105.169 266.112 102.098V84.2311C266.112 81.1602 265.46 78.8105 264.158 77.182C262.855 75.5534 260.947 74.7392 258.435 74.7392C255.922 74.7392 254.014 75.5534 252.711 77.182C251.409 78.8105 250.757 81.1602 250.757 84.2311V102.098C250.757 105.169 251.409 107.519 252.711 109.148C254.014 110.776 255.922 111.59 258.435 111.59ZM296.076 68.7369C300.868 68.7369 304.567 70.1328 307.173 72.9245C309.779 75.6698 311.081 79.5317 311.081 84.5103C311.081 89.6285 309.779 93.5603 307.173 96.3055C304.567 99.0507 300.868 100.423 296.076 100.423H290.213V117.593H283.164V68.7369H296.076ZM296.006 93.7231C298.658 93.7231 300.636 92.9786 301.938 91.4897C303.241 89.9542 303.893 87.6278 303.893 84.5103C303.893 78.4615 301.264 75.4371 296.006 75.4371H290.213V93.7231H296.006Z" fill="#3E1F63"/>
<path d="M114.17 0.465313V61H108.808V29.0031C108.808 22.9496 108.981 17.2421 109.327 11.8804L108.981 11.7939C108.462 13.3506 107.251 16.4638 105.349 21.1336L102.754 27.7059L95.3173 46.7311H89.9556L82.5185 27.7059L79.9242 21.1336C78.0216 16.4638 76.811 13.3506 76.2921 11.7939L75.9462 11.8804C76.2921 17.2421 76.465 22.9496 76.465 29.0031V61H71.1034V0.465313H76.811L87.6207 26.5817C89.0044 30.0408 90.6186 34.5377 92.4635 40.0723H92.8094C94.6543 34.5377 96.2685 30.0408 97.6522 26.5817L108.462 0.465313H114.17ZM150.261 46.8176H131.062L127.517 61H121.809L137.721 0.465313H143.602L159.514 61H153.806L150.261 46.8176ZM149.05 41.9748L142.823 16.8962C141.959 13.5523 141.267 10.3815 140.748 7.38357H140.575C140.056 10.3815 139.364 13.5523 138.5 16.8962L132.273 41.9748H149.05ZM180.816 62.0377C175.858 62.0377 171.852 60.4523 168.796 57.2814C165.798 54.0529 164.299 49.5849 164.299 43.8773V17.588C164.299 11.8804 165.769 7.44122 168.709 4.27035C171.707 1.04184 175.628 -0.572422 180.471 -0.572422C185.429 -0.572422 189.378 0.955358 192.318 4.01092C195.316 7.00882 196.959 11.3039 197.247 16.8962H192.059C191.77 12.6876 190.617 9.54552 188.599 7.47004C186.639 5.33692 183.93 4.27035 180.471 4.27035C177.127 4.27035 174.446 5.39457 172.428 7.643C170.468 9.89143 169.488 13.2064 169.488 17.588V43.8773C169.488 48.2589 170.497 51.5739 172.515 53.8223C174.59 56.0707 177.357 57.195 180.816 57.195C187.792 57.195 191.713 52.9864 192.577 44.5692H197.766C197.305 50.1038 195.604 54.3988 192.664 57.4544C189.724 60.51 185.775 62.0377 180.816 62.0377ZM234.218 5.48105H220.9V61H215.539V5.48105H202.221V0.465313H234.218V5.48105ZM271.598 56.0707V61H242.455V0.465313H270.647V5.39457H247.817V27.7924H269.177V32.7217H247.817V56.0707H271.598ZM296.253 0.465313C301.788 0.465313 306.054 2.07957 309.052 5.30809C312.05 8.53661 313.549 13.1199 313.549 19.0581C313.549 25.2845 312.05 30.012 309.052 33.2405C306.112 36.469 301.845 38.0833 296.253 38.0833H287.087V61H281.725V0.465313H296.253ZM296.253 32.9811C300.347 32.9811 303.344 31.8569 305.247 29.6084C307.207 27.36 308.187 23.8432 308.187 19.0581C308.187 14.5612 307.207 11.1886 305.247 8.94017C303.287 6.69174 300.289 5.56752 296.253 5.56752H287.087V32.9811H296.253Z" fill="#3E1F63"/>
</g>
<defs>
<clipPath id="clip0_8_84">
<rect width="317" height="118" fill="white"/>
</clipPath>
<clipPath id="clip1_8_84">
<rect width="60.7615" height="60.7407" fill="white" transform="translate(1.48145)"/>
</clipPath>
</defs>
</svg>
