<svg xmlns="http://www.w3.org/2000/svg" width="1457.53" height="345.39" viewBox="0 0 1457.53 345.39">
  <g>
    <path d="M382.5,59H359.25V41.52A8.16,8.16,0,0,0,354.31,34c-49.1-21-109.5-12.07-159,23-49.5-35.1-109.9-44-159-23a8.15,8.15,0,0,0-4.95,7.49V59H8.14A8.13,8.13,0,0,0,0,67.15V292.09a8.13,8.13,0,0,0,8.14,8.14H382.5a8.14,8.14,0,0,0,8.13-8.14V67.15A8.13,8.13,0,0,0,382.5,59ZM16.28,284V75.29h15.1V266.46a8.14,8.14,0,0,0,11.34,7.48c38.12-16.27,84.15-12.2,125,10Zm170.9-7.42c-29.7-18.93-62.74-28.75-94.64-28.75a145.19,145.19,0,0,0-44.88,6.95V67.24s0-.06,0-.09,0-.06,0-.1V47c43.41-16.27,96-7.17,139.52,24.23ZM203.46,71.25C246.93,39.85,299.57,30.75,343,47V254.73c-44.09-14.33-95.47-6.26-139.51,21.8ZM374.36,284H222.9c40.86-22.21,86.9-26.28,125-10a8.13,8.13,0,0,0,11.33-7.48V75.29h15.11V284Z" fill="#ba9a70"/>
    <text transform="translate(450.89 114.53)" font-size="140.44" fill="#ba9a70" font-family="Alice-Regular, Alice"><tspan letter-spacing="-0.03em">М</tspan><tspan x="120.5" y="0" letter-spacing="0em">а</tspan><tspan x="190.29" y="0" letter-spacing="0em">стер</tspan><tspan x="479.87" y="0" letter-spacing="-0.02em">-</tspan><tspan x="531.27" y="0">к</tspan><tspan x="612.72" y="0" letter-spacing="-0.01em">л</tspan><tspan x="697.97" y="0" letter-spacing="0em">а</tspan><tspan x="767.76" y="0" letter-spacing="0em">ссы</tspan></text>
    <text transform="matrix(1, -0.08, 0.08, 1, 542.82, 276.53)" font-size="140.44" font-family="SignPainter-HouseScript, SignPainter">Научись новому!</text>
  </g>
</svg>
