<svg xmlns="http://www.w3.org/2000/svg" width="390.63" height="277.4" viewBox="0 0 390.63 277.4">
  <path d="M382.5,36.18H359.25V18.69a8.16,8.16,0,0,0-4.94-7.49c-49.1-21-109.5-12.07-159,23-49.5-35.1-109.9-44-159-23a8.15,8.15,0,0,0-4.95,7.49V36.18H8.14A8.13,8.13,0,0,0,0,44.32V269.26a8.14,8.14,0,0,0,8.14,8.14H382.5a8.14,8.14,0,0,0,8.13-8.14V44.32A8.13,8.13,0,0,0,382.5,36.18ZM16.28,261.12V52.46h15.1V243.63a8.14,8.14,0,0,0,11.34,7.48c38.12-16.27,84.15-12.2,125,10Zm170.9-7.42c-29.7-18.93-62.74-28.76-94.64-28.76a144.91,144.91,0,0,0-44.88,7V44.41s0-.06,0-.09,0-.07,0-.1v-20C91.07,7.92,143.7,17,187.18,48.42ZM203.46,48.42C246.93,17,299.57,7.92,343,24.19V231.9c-44.09-14.33-95.47-6.27-139.51,21.8Zm170.9,212.7H222.9c40.86-22.21,86.9-26.28,125-10a8.13,8.13,0,0,0,11.33-7.48V52.46h15.11V261.12Z" fill="#ba9a70"/>
</svg>
