<svg width="230" height="60" viewBox="0 0 230 60" fill="none" xmlns="http://www.w3.org/2000/svg">
<g clip-path="url(#clip0_192_385)">
<mask id="mask0_192_385" style="mask-type:luminance" maskUnits="userSpaceOnUse" x="0" y="0" width="230" height="60">
<path d="M230 0H0V60H230V0Z" fill="white"/>
</mask>
<g mask="url(#mask0_192_385)">
<mask id="mask1_192_385" style="mask-type:luminance" maskUnits="userSpaceOnUse" x="0" y="0" width="60" height="60">
<path d="M60 0H0V60H60V0Z" fill="white"/>
</mask>
<g mask="url(#mask1_192_385)">
<path d="M56.9191 38.4441L47.1602 28.6852V21.2695C47.1602 20.6223 46.6355 20.0977 45.9884 20.0977C45.3413 20.0977 44.8165 20.6223 44.8165 21.2695V26.3415L42.4637 23.9888C42.5011 23.7144 42.5221 23.4349 42.5221 23.1505C42.5221 19.7391 39.6645 16.9636 36.253 16.9636C34.3901 16.9636 32.5229 16.2732 31.1447 15.0198C30.8015 14.7076 30.3065 14.6273 29.8822 14.815C29.458 15.0026 29.1844 15.4228 29.1844 15.8868V17.5877C28.3214 17.175 27.3703 16.9568 26.3855 16.9568C24.6506 16.9568 23.0197 17.6324 21.7931 18.859C20.1747 20.4776 17.5415 20.4773 15.923 18.859C14.6963 17.6323 13.0654 16.9568 11.3306 16.9568C10.239 16.9568 9.18872 17.2248 8.25415 17.7288V7.03125H44.8166V10.7227C44.8166 11.3699 45.3414 11.8945 45.9885 11.8945C46.6356 11.8945 47.1604 11.3699 47.1604 10.7227V5.85938C47.1604 5.21215 46.6356 4.6875 45.9885 4.6875H35.4609V1.17188C35.4609 0.524648 34.9362 0 34.2891 0H18.7812C18.1341 0 17.6093 0.524648 17.6093 1.17188V4.6875H7.08204C6.43493 4.6875 5.91017 5.21215 5.91017 5.85938V32.8125H5.83446C3.71149 32.8125 1.98438 34.6739 1.98438 36.7969C1.98438 38.9198 3.71149 40.7813 5.83446 40.7813H10.7971L6.04294 58.5248C5.9486 58.8768 6.02337 59.2525 6.2452 59.5416C6.46704 59.8307 6.81062 60.0001 7.17496 60.0001H13.01C13.5404 60.0001 14.0047 59.6439 14.142 59.1315L16.496 50.3459H36.5745L38.9285 59.1315C39.0658 59.6439 39.53 60.0001 40.0604 60.0001H45.8956C46.2598 60.0001 46.6035 59.8307 46.8253 59.5416C47.0472 59.2526 47.1218 58.8769 47.0276 58.5248L42.2732 40.7813H47.2358C47.6534 40.7813 48.0622 40.7123 48.4513 40.583L51.6157 43.7474C52.3468 44.4784 53.3071 44.8439 54.2674 44.8439C55.2277 44.8439 56.1881 44.4784 56.9191 43.7474C58.3811 42.2851 58.3811 39.9061 56.9191 38.4441ZM19.9531 2.34375H33.1172V4.6875H19.9531V2.34375ZM31.528 18.1409C32.9438 18.9019 34.6164 19.3072 36.2529 19.3072C38.3721 19.3072 40.1782 21.0313 40.1782 23.1504C40.1782 25.2695 38.4541 26.9937 36.3349 26.9937C33.6844 26.9937 31.5279 24.8373 31.5279 22.1868L31.528 18.1409ZM8.25391 20.6352C8.30324 20.5993 8.35106 20.5605 8.39548 20.5161C9.17935 19.7321 10.2217 19.3004 11.3304 19.3004C12.4392 19.3004 13.4815 19.7322 14.2655 20.5163C15.5317 21.7823 17.1947 22.4154 18.8578 22.4154C20.5209 22.4154 22.1841 21.7823 23.4502 20.5163C24.234 19.7323 25.2764 19.3005 26.3852 19.3005C27.431 19.3005 28.4176 19.685 29.1841 20.3866V22.1869C29.1841 26.1298 32.3919 29.3375 36.3349 29.3375C36.6115 29.3375 36.8832 29.3175 37.1503 29.2821L40.6808 32.8125H8.25391V20.6352ZM12.1109 57.6563H8.70216L13.2236 40.7813H16.6323L12.1109 57.6563ZM17.1239 48.0021L19.0587 40.7813H34.0117L35.9465 48.0021H17.1239ZM44.3683 57.6563H40.9595L36.4381 40.7813H39.8468L44.3683 57.6563ZM5.83457 38.4375C5.00394 38.4375 4.32824 37.6275 4.32824 36.7969C4.32824 35.9663 5.00406 35.1563 5.83457 35.1563H43.0246L46.3058 38.4375H5.83457ZM55.2618 42.09C54.7133 42.6384 53.8212 42.6383 53.273 42.09L39.5911 28.4081C40.3969 27.9073 41.0794 27.2265 41.5826 26.4223L55.2618 40.1013C55.8101 40.6495 55.8101 41.5418 55.2618 42.09Z" fill="#3B3B3B"/>
<path d="M45.9883 14.8242C45.68 14.8242 45.3777 14.9496 45.1597 15.1676C44.9418 15.3855 44.8164 15.6879 44.8164 15.9961C44.8164 16.3043 44.9416 16.6066 45.1597 16.8246C45.3778 17.0426 45.68 17.168 45.9883 17.168C46.2965 17.168 46.5988 17.0426 46.8166 16.8246C47.0346 16.6066 47.1601 16.3043 47.1601 15.9961C47.1601 15.6879 47.0347 15.3855 46.8166 15.1676C46.5988 14.9496 46.2965 14.8242 45.9883 14.8242Z" fill="#3B3B3B"/>
</g>
<path d="M81.6599 14H83.3999V28H81.9999V16.12L77.0999 24.32H76.8999L71.9999 16.12V28H70.5999V14H72.3399L76.9999 21.8L81.6599 14ZM94.996 19.96V18H96.316V28H94.996V26.04C94.076 27.5067 92.7293 28.24 90.956 28.24C89.5293 28.24 88.3093 27.7333 87.296 26.72C86.296 25.7067 85.796 24.4667 85.796 23C85.796 21.5333 86.296 20.2933 87.296 19.28C88.3093 18.2667 89.5293 17.76 90.956 17.76C92.7293 17.76 94.076 18.4933 94.996 19.96ZM88.256 25.82C89.016 26.58 89.9493 26.96 91.056 26.96C92.1627 26.96 93.096 26.58 93.856 25.82C94.616 25.0333 94.996 24.0933 94.996 23C94.996 21.8933 94.616 20.96 93.856 20.2C93.096 19.4267 92.1627 19.04 91.056 19.04C89.9493 19.04 89.016 19.4267 88.256 20.2C87.496 20.96 87.116 21.8933 87.116 23C87.116 24.0933 87.496 25.0333 88.256 25.82ZM103.771 28.24C102.264 28.24 101.011 27.74 100.011 26.74C99.0108 25.7133 98.5108 24.4667 98.5108 23C98.5108 21.52 99.0108 20.28 100.011 19.28C101.011 18.2667 102.264 17.76 103.771 17.76C104.758 17.76 105.644 18 106.431 18.48C107.218 18.9467 107.791 19.58 108.151 20.38L107.071 21C106.804 20.4 106.371 19.9267 105.771 19.58C105.184 19.22 104.518 19.04 103.771 19.04C102.664 19.04 101.731 19.4267 100.971 20.2C100.211 20.96 99.8308 21.8933 99.8308 23C99.8308 24.0933 100.211 25.0333 100.971 25.82C101.731 26.58 102.664 26.96 103.771 26.96C104.504 26.96 105.164 26.7867 105.751 26.44C106.351 26.0933 106.818 25.6133 107.151 25L108.251 25.64C107.838 26.44 107.231 27.0733 106.431 27.54C105.631 28.0067 104.744 28.24 103.771 28.24ZM108.751 18H117.151V19.28H113.611V28H112.291V19.28H108.751V18ZM122.989 17.76C124.482 17.76 125.675 18.2867 126.569 19.34C127.489 20.38 127.949 21.6133 127.949 23.04C127.949 23.1067 127.935 23.3133 127.909 23.66H119.129C119.262 24.66 119.689 25.46 120.409 26.06C121.129 26.66 122.029 26.96 123.109 26.96C124.629 26.96 125.702 26.3933 126.329 25.26L127.489 25.94C127.049 26.66 126.442 27.2267 125.669 27.64C124.909 28.04 124.049 28.24 123.089 28.24C121.515 28.24 120.235 27.7467 119.249 26.76C118.262 25.7733 117.769 24.52 117.769 23C117.769 21.4933 118.255 20.2467 119.229 19.26C120.202 18.26 121.455 17.76 122.989 17.76ZM122.989 19.04C121.949 19.04 121.075 19.3467 120.369 19.96C119.675 20.5733 119.262 21.38 119.129 22.38H126.589C126.442 21.3133 126.035 20.4933 125.369 19.92C124.675 19.3333 123.882 19.04 122.989 19.04ZM135.408 17.76C136.835 17.76 138.048 18.2667 139.048 19.28C140.062 20.2933 140.568 21.5333 140.568 23C140.568 24.4667 140.062 25.7067 139.048 26.72C138.048 27.7333 136.835 28.24 135.408 28.24C133.635 28.24 132.288 27.5067 131.368 26.04V32H130.048V18H131.368V19.96C132.288 18.4933 133.635 17.76 135.408 17.76ZM132.508 25.82C133.268 26.58 134.202 26.96 135.308 26.96C136.415 26.96 137.348 26.58 138.108 25.82C138.868 25.0333 139.248 24.0933 139.248 23C139.248 21.8933 138.868 20.96 138.108 20.2C137.348 19.4267 136.415 19.04 135.308 19.04C134.202 19.04 133.268 19.4267 132.508 20.2C131.748 20.96 131.368 21.8933 131.368 23C131.368 24.0933 131.748 25.0333 132.508 25.82ZM150.163 22.46H142.963V21.18H150.163V22.46ZM155.874 22.8L161.234 28H159.474L154.474 23.18V28H153.154V18H154.474V22.42L159.234 18H161.034L155.874 22.8ZM164.077 18H171.237V28H169.917V19.28H165.397V23.74C165.397 25.4067 165.077 26.5533 164.437 27.18C163.81 27.8067 162.943 28.08 161.837 28V26.76C162.61 26.84 163.177 26.6533 163.537 26.2C163.897 25.7467 164.077 24.9267 164.077 23.74V18ZM182.633 19.96V18H183.953V28H182.633V26.04C181.713 27.5067 180.366 28.24 178.593 28.24C177.166 28.24 175.946 27.7333 174.933 26.72C173.933 25.7067 173.433 24.4667 173.433 23C173.433 21.5333 173.933 20.2933 174.933 19.28C175.946 18.2667 177.166 17.76 178.593 17.76C180.366 17.76 181.713 18.4933 182.633 19.96ZM175.893 25.82C176.653 26.58 177.586 26.96 178.693 26.96C179.799 26.96 180.733 26.58 181.493 25.82C182.253 25.0333 182.633 24.0933 182.633 23C182.633 21.8933 182.253 20.96 181.493 20.2C180.733 19.4267 179.799 19.04 178.693 19.04C177.586 19.04 176.653 19.4267 175.893 20.2C175.133 20.96 174.753 21.8933 174.753 23C174.753 24.0933 175.133 25.0333 175.893 25.82ZM191.408 28.24C189.901 28.24 188.648 27.74 187.648 26.74C186.648 25.7133 186.148 24.4667 186.148 23C186.148 21.52 186.648 20.28 187.648 19.28C188.648 18.2667 189.901 17.76 191.408 17.76C192.394 17.76 193.281 18 194.068 18.48C194.854 18.9467 195.428 19.58 195.788 20.38L194.708 21C194.441 20.4 194.008 19.9267 193.408 19.58C192.821 19.22 192.154 19.04 191.408 19.04C190.301 19.04 189.368 19.4267 188.608 20.2C187.848 20.96 187.468 21.8933 187.468 23C187.468 24.0933 187.848 25.0333 188.608 25.82C189.368 26.58 190.301 26.96 191.408 26.96C192.141 26.96 192.801 26.7867 193.388 26.44C193.988 26.0933 194.454 25.6133 194.788 25L195.888 25.64C195.474 26.44 194.868 27.0733 194.068 27.54C193.268 28.0067 192.381 28.24 191.408 28.24ZM202.345 28.24C200.838 28.24 199.585 27.74 198.585 26.74C197.585 25.7133 197.085 24.4667 197.085 23C197.085 21.52 197.585 20.28 198.585 19.28C199.585 18.2667 200.838 17.76 202.345 17.76C203.332 17.76 204.218 18 205.005 18.48C205.792 18.9467 206.365 19.58 206.725 20.38L205.645 21C205.378 20.4 204.945 19.9267 204.345 19.58C203.758 19.22 203.092 19.04 202.345 19.04C201.238 19.04 200.305 19.4267 199.545 20.2C198.785 20.96 198.405 21.8933 198.405 23C198.405 24.0933 198.785 25.0333 199.545 25.82C200.305 26.58 201.238 26.96 202.345 26.96C203.078 26.96 203.738 26.7867 204.325 26.44C204.925 26.0933 205.392 25.6133 205.725 25L206.825 25.64C206.412 26.44 205.805 27.0733 205.005 27.54C204.205 28.0067 203.318 28.24 202.345 28.24ZM210.04 21.8H212.78C213.7 21.8 214.487 22.0933 215.14 22.68C215.794 23.2533 216.12 23.9933 216.12 24.9C216.12 25.82 215.794 26.5667 215.14 27.14C214.514 27.7133 213.727 28 212.78 28H208.72V18H210.04V21.8ZM217.52 28V18H218.84V28H217.52ZM210.04 26.72H212.78C213.354 26.72 213.834 26.5533 214.22 26.22C214.607 25.8733 214.8 25.4333 214.8 24.9C214.8 24.3667 214.607 23.9333 214.22 23.6C213.834 23.2533 213.354 23.08 212.78 23.08H210.04V26.72ZM76.7599 46.86C77.8532 47.26 78.3999 48.04 78.3999 49.2C78.3999 50.0267 78.1199 50.7 77.5599 51.22C77.0132 51.74 76.2466 52 75.2599 52H70.3999V42H74.8599C75.8199 42 76.5666 42.2467 77.0999 42.74C77.6466 43.2333 77.9199 43.88 77.9199 44.68C77.9199 45.68 77.5332 46.4067 76.7599 46.86ZM74.8599 43.28H71.7199V46.32H74.8599C76.0199 46.32 76.5999 45.8 76.5999 44.76C76.5999 44.2933 76.4466 43.9333 76.1399 43.68C75.8466 43.4133 75.4199 43.28 74.8599 43.28ZM71.7199 50.72H75.2599C75.8466 50.72 76.2932 50.58 76.5999 50.3C76.9199 50.02 77.0799 49.6267 77.0799 49.12C77.0799 48.64 76.9199 48.2667 76.5999 48C76.2932 47.7333 75.8466 47.6 75.2599 47.6H71.7199V50.72ZM96.6599 38H98.3999V52H96.9999V40.12L92.0999 48.32H91.8999L86.9999 40.12V52H85.5999V38H87.3399L91.9999 45.8L96.6599 38ZM109.776 50.74C108.749 51.74 107.509 52.24 106.056 52.24C104.576 52.24 103.329 51.74 102.316 50.74C101.303 49.7267 100.796 48.48 100.796 47C100.796 45.52 101.303 44.28 102.316 43.28C103.329 42.2667 104.576 41.76 106.056 41.76C107.523 41.76 108.763 42.2667 109.776 43.28C110.803 44.28 111.316 45.52 111.316 47C111.316 48.4667 110.803 49.7133 109.776 50.74ZM103.256 49.82C104.016 50.58 104.949 50.96 106.056 50.96C107.163 50.96 108.096 50.58 108.856 49.82C109.616 49.0333 109.996 48.0933 109.996 47C109.996 45.8933 109.616 44.96 108.856 44.2C108.096 43.4267 107.163 43.04 106.056 43.04C104.949 43.04 104.016 43.4267 103.256 44.2C102.496 44.96 102.116 45.8933 102.116 47C102.116 48.0933 102.496 49.0333 103.256 49.82ZM118.185 52.24C116.678 52.24 115.425 51.74 114.425 50.74C113.425 49.7133 112.925 48.4667 112.925 47C112.925 45.52 113.425 44.28 114.425 43.28C115.425 42.2667 116.678 41.76 118.185 41.76C119.172 41.76 120.058 42 120.845 42.48C121.632 42.9467 122.205 43.58 122.565 44.38L121.485 45C121.218 44.4 120.785 43.9267 120.185 43.58C119.598 43.22 118.932 43.04 118.185 43.04C117.078 43.04 116.145 43.4267 115.385 44.2C114.625 44.96 114.245 45.8933 114.245 47C114.245 48.0933 114.625 49.0333 115.385 49.82C116.145 50.58 117.078 50.96 118.185 50.96C118.918 50.96 119.578 50.7867 120.165 50.44C120.765 50.0933 121.232 49.6133 121.565 49L122.665 49.64C122.252 50.44 121.645 51.0733 120.845 51.54C120.045 52.0067 119.158 52.24 118.185 52.24ZM127.28 46.8L132.64 52H130.88L125.88 47.18V52H124.56V42H125.88V46.42L130.64 42H132.44L127.28 46.8ZM140.803 46.86C141.896 47.26 142.443 48.04 142.443 49.2C142.443 50.0267 142.163 50.7 141.603 51.22C141.056 51.74 140.29 52 139.303 52H134.443V42H138.903C139.863 42 140.61 42.2467 141.143 42.74C141.69 43.2333 141.963 43.88 141.963 44.68C141.963 45.68 141.576 46.4067 140.803 46.86ZM138.903 43.28H135.763V46.32H138.903C140.063 46.32 140.643 45.8 140.643 44.76C140.643 44.2933 140.49 43.9333 140.183 43.68C139.89 43.4133 139.463 43.28 138.903 43.28ZM135.763 50.72H139.303C139.89 50.72 140.336 50.58 140.643 50.3C140.963 50.02 141.123 49.6267 141.123 49.12C141.123 48.64 140.963 48.2667 140.643 48C140.336 47.7333 139.89 47.6 139.303 47.6H135.763V50.72ZM149.063 41.76C150.556 41.76 151.75 42.2867 152.643 43.34C153.563 44.38 154.023 45.6133 154.023 47.04C154.023 47.1067 154.01 47.3133 153.983 47.66H145.203C145.336 48.66 145.763 49.46 146.483 50.06C147.203 50.66 148.103 50.96 149.183 50.96C150.703 50.96 151.776 50.3933 152.403 49.26L153.563 49.94C153.123 50.66 152.516 51.2267 151.743 51.64C150.983 52.04 150.123 52.24 149.163 52.24C147.59 52.24 146.31 51.7467 145.323 50.76C144.336 49.7733 143.843 48.52 143.843 47C143.843 45.4933 144.33 44.2467 145.303 43.26C146.276 42.26 147.53 41.76 149.063 41.76ZM149.063 43.04C148.023 43.04 147.15 43.3467 146.443 43.96C145.75 44.5733 145.336 45.38 145.203 46.38H152.663C152.516 45.3133 152.11 44.4933 151.443 43.92C150.75 43.3333 149.956 43.04 149.063 43.04ZM162.443 49.7L168.403 42H169.523V52H168.203V44.3L162.243 52H161.123V42H162.443V49.7ZM188.574 38H190.314V52H188.914V40.12L184.014 48.32H183.814L178.914 40.12V52H177.514V38H179.254L183.914 45.8L188.574 38ZM205.09 50.14C203.69 51.54 201.977 52.24 199.95 52.24C197.923 52.24 196.21 51.54 194.81 50.14C193.41 48.7133 192.71 47 192.71 45C192.71 42.9867 193.41 41.28 194.81 39.88C196.21 38.4667 197.923 37.76 199.95 37.76C201.977 37.76 203.69 38.4667 205.09 39.88C206.49 41.28 207.19 42.9867 207.19 45C207.19 47 206.49 48.7133 205.09 50.14ZM194.11 45C194.11 46.6533 194.67 48.0467 195.79 49.18C196.91 50.3133 198.297 50.88 199.95 50.88C201.603 50.88 202.99 50.3133 204.11 49.18C205.23 48.0467 205.79 46.6533 205.79 45C205.79 43.36 205.23 41.9733 204.11 40.84C202.99 39.6933 201.603 39.12 199.95 39.12C198.297 39.12 196.91 39.6933 195.79 40.84C194.67 41.9733 194.11 43.36 194.11 45Z" fill="#3B3B3B"/>
</g>
</g>
<defs>
<clipPath id="clip0_192_385">
<rect width="230" height="60" fill="white"/>
</clipPath>
</defs>
</svg>
