<svg width="297" height="60" viewBox="0 0 297 60" fill="none" xmlns="http://www.w3.org/2000/svg">
<mask id="mask0_192_399" style="mask-type:luminance" maskUnits="userSpaceOnUse" x="0" y="0" width="60" height="60">
<path d="M60 0H0V60H60V0Z" fill="white"/>
</mask>
<g mask="url(#mask0_192_399)">
<path d="M56.9191 38.4441L47.1602 28.6852V21.2695C47.1602 20.6223 46.6355 20.0977 45.9884 20.0977C45.3413 20.0977 44.8165 20.6223 44.8165 21.2695V26.3415L42.4637 23.9888C42.5011 23.7144 42.5221 23.4349 42.5221 23.1505C42.5221 19.7391 39.6645 16.9636 36.253 16.9636C34.3901 16.9636 32.5229 16.2732 31.1447 15.0198C30.8015 14.7076 30.3065 14.6273 29.8822 14.815C29.458 15.0026 29.1844 15.4228 29.1844 15.8868V17.5877C28.3214 17.175 27.3703 16.9568 26.3855 16.9568C24.6506 16.9568 23.0197 17.6324 21.7931 18.859C20.1747 20.4776 17.5415 20.4773 15.923 18.859C14.6963 17.6323 13.0654 16.9568 11.3306 16.9568C10.239 16.9568 9.18872 17.2248 8.25415 17.7288V7.03125H44.8166V10.7227C44.8166 11.3699 45.3414 11.8945 45.9885 11.8945C46.6356 11.8945 47.1604 11.3699 47.1604 10.7227V5.85938C47.1604 5.21215 46.6356 4.6875 45.9885 4.6875H35.4609V1.17188C35.4609 0.524648 34.9362 0 34.2891 0H18.7812C18.1341 0 17.6093 0.524648 17.6093 1.17188V4.6875H7.08204C6.43493 4.6875 5.91017 5.21215 5.91017 5.85938V32.8125H5.83446C3.71149 32.8125 1.98438 34.6739 1.98438 36.7969C1.98438 38.9198 3.71149 40.7813 5.83446 40.7813H10.7971L6.04294 58.5248C5.9486 58.8768 6.02337 59.2525 6.2452 59.5416C6.46704 59.8307 6.81062 60.0001 7.17496 60.0001H13.01C13.5404 60.0001 14.0047 59.6439 14.142 59.1315L16.496 50.3459H36.5745L38.9285 59.1315C39.0658 59.6439 39.53 60.0001 40.0604 60.0001H45.8956C46.2598 60.0001 46.6035 59.8307 46.8253 59.5416C47.0472 59.2526 47.1218 58.8769 47.0276 58.5248L42.2732 40.7813H47.2358C47.6534 40.7813 48.0622 40.7123 48.4513 40.583L51.6157 43.7474C52.3468 44.4784 53.3071 44.8439 54.2674 44.8439C55.2277 44.8439 56.1881 44.4784 56.9191 43.7474C58.3811 42.2851 58.3811 39.9061 56.9191 38.4441ZM19.9531 2.34375H33.1172V4.6875H19.9531V2.34375ZM31.528 18.1409C32.9438 18.9019 34.6164 19.3072 36.2529 19.3072C38.3721 19.3072 40.1782 21.0313 40.1782 23.1504C40.1782 25.2695 38.4541 26.9937 36.3349 26.9937C33.6844 26.9937 31.5279 24.8373 31.5279 22.1868L31.528 18.1409ZM8.25391 20.6352C8.30324 20.5993 8.35106 20.5605 8.39548 20.5161C9.17935 19.7321 10.2217 19.3004 11.3304 19.3004C12.4392 19.3004 13.4815 19.7322 14.2655 20.5163C15.5317 21.7823 17.1947 22.4154 18.8578 22.4154C20.5209 22.4154 22.1841 21.7823 23.4502 20.5163C24.234 19.7323 25.2764 19.3005 26.3852 19.3005C27.431 19.3005 28.4176 19.685 29.1841 20.3866V22.1869C29.1841 26.1298 32.3919 29.3375 36.3349 29.3375C36.6115 29.3375 36.8832 29.3175 37.1503 29.2821L40.6808 32.8125H8.25391V20.6352ZM12.1109 57.6563H8.70216L13.2236 40.7813H16.6323L12.1109 57.6563ZM17.1239 48.0021L19.0587 40.7813H34.0117L35.9465 48.0021H17.1239ZM44.3683 57.6563H40.9595L36.4381 40.7813H39.8468L44.3683 57.6563ZM5.83457 38.4375C5.00394 38.4375 4.32824 37.6275 4.32824 36.7969C4.32824 35.9663 5.00406 35.1563 5.83457 35.1563H43.0246L46.3058 38.4375H5.83457ZM55.2618 42.09C54.7133 42.6384 53.8212 42.6383 53.273 42.09L39.5911 28.4081C40.3969 27.9073 41.0794 27.2265 41.5826 26.4223L55.2618 40.1013C55.8101 40.6495 55.8101 41.5418 55.2618 42.09Z" fill="#3B3B3B"/>
<path d="M45.9883 14.8242C45.68 14.8242 45.3777 14.9496 45.1597 15.1676C44.9418 15.3855 44.8164 15.6879 44.8164 15.9961C44.8164 16.3043 44.9416 16.6066 45.1597 16.8246C45.3778 17.0426 45.68 17.168 45.9883 17.168C46.2965 17.168 46.5988 17.0426 46.8166 16.8246C47.0346 16.6066 47.1601 16.3043 47.1601 15.9961C47.1601 15.6879 47.0347 15.3855 46.8166 15.1676C46.5988 14.9496 46.2965 14.8242 45.9883 14.8242Z" fill="#3B3B3B"/>
</g>
<path d="M81.6674 0H84.3975V21.9665H82.2008V3.32636L74.5125 16.1925H74.1987L66.5105 3.32636V21.9665H64.3138V0H67.0439L74.3556 12.2385L81.6674 0ZM102.592 9.35146V6.27615H104.663V21.9665H102.592V18.8912C101.149 21.1925 99.0357 22.3431 96.2533 22.3431C94.0147 22.3431 92.1005 21.5481 90.5106 19.9582C88.9416 18.3683 88.1571 16.4226 88.1571 14.1213C88.1571 11.82 88.9416 9.87442 90.5106 8.28452C92.1005 6.69461 94.0147 5.89958 96.2533 5.89958C99.0357 5.89958 101.149 7.05015 102.592 9.35146ZM92.0169 18.546C93.2094 19.7385 94.6737 20.3347 96.4102 20.3347C98.1466 20.3347 99.611 19.7385 100.804 18.546C101.996 17.3117 102.592 15.8368 102.592 14.1213C102.592 12.3849 101.996 10.9205 100.804 9.72803C99.611 8.5147 98.1466 7.90795 96.4102 7.90795C94.6737 7.90795 93.2094 8.5147 92.0169 9.72803C90.8244 10.9205 90.2282 12.3849 90.2282 14.1213C90.2282 15.8368 90.8244 17.3117 92.0169 18.546ZM116.36 22.3431C113.996 22.3431 112.03 21.5586 110.461 19.9895C108.892 18.3786 108.107 16.4226 108.107 14.1213C108.107 11.7992 108.892 9.85356 110.461 8.28452C112.03 6.69461 113.996 5.89958 116.36 5.89958C117.909 5.89958 119.299 6.27615 120.534 7.02929C121.769 7.76156 122.668 8.75523 123.233 10.0105L121.538 10.9833C121.119 10.0418 120.44 9.29921 119.498 8.75523C118.577 8.19038 117.532 7.90795 116.36 7.90795C114.623 7.90795 113.16 8.5147 111.967 9.72803C110.775 10.9205 110.178 12.3849 110.178 14.1213C110.178 15.8368 110.775 17.3117 111.967 18.546C113.16 19.7385 114.623 20.3347 116.36 20.3347C117.51 20.3347 118.546 20.0628 119.467 19.5188C120.408 18.9748 121.141 18.2217 121.664 17.2594L123.39 18.2636C122.742 19.5188 121.789 20.5125 120.534 21.2448C119.279 21.977 117.887 22.3431 116.36 22.3431ZM124.174 6.27615H137.354V8.28452H131.8V21.9665H129.729V8.28452H124.174V6.27615ZM146.514 5.89958C148.857 5.89958 150.729 6.72599 152.131 8.37866C153.575 10.0105 154.297 11.9456 154.297 14.1841C154.297 14.2888 154.275 14.6129 154.234 15.1569H140.458C140.666 16.7259 141.336 17.9812 142.466 18.9226C143.596 19.864 145.008 20.3347 146.702 20.3347C149.087 20.3347 150.771 19.4456 151.755 17.6674L153.575 18.7343C152.884 19.864 151.932 20.7532 150.719 21.4017C149.527 22.0293 148.177 22.3431 146.671 22.3431C144.201 22.3431 142.193 21.5691 140.646 20.0209C139.097 18.4728 138.324 16.5063 138.324 14.1213C138.324 11.7573 139.086 9.80131 140.615 8.25314C142.141 6.6841 144.107 5.89958 146.514 5.89958ZM146.514 7.90795C144.882 7.90795 143.511 8.38917 142.403 9.35146C141.314 10.3138 140.666 11.5795 140.458 13.1485H152.163C151.932 11.4748 151.293 10.1882 150.248 9.2887C149.16 8.36815 147.915 7.90795 146.514 7.90795ZM166 5.89958C168.239 5.89958 170.142 6.69461 171.711 8.28452C173.302 9.87442 174.096 11.82 174.096 14.1213C174.096 16.4226 173.302 18.3683 171.711 19.9582C170.142 21.5481 168.239 22.3431 166 22.3431C163.218 22.3431 161.105 21.1925 159.661 18.8912V28.2427H157.59V6.27615H159.661V9.35146C161.105 7.05015 163.218 5.89958 166 5.89958ZM161.45 18.546C162.642 19.7385 164.108 20.3347 165.843 20.3347C167.58 20.3347 169.044 19.7385 170.236 18.546C171.429 17.3117 172.025 15.8368 172.025 14.1213C172.025 12.3849 171.429 10.9205 170.236 9.72803C169.044 8.5147 167.58 7.90795 165.843 7.90795C164.108 7.90795 162.642 8.5147 161.45 9.72803C160.257 10.9205 159.661 12.3849 159.661 14.1213C159.661 15.8368 160.257 17.3117 161.45 18.546ZM189.151 13.2741H177.854V11.2657H189.151V13.2741ZM198.112 13.8075L206.522 21.9665H203.76L195.915 14.4038V21.9665H193.844V6.27615H195.915V13.2113L203.384 6.27615H206.208L198.112 13.8075ZM210.983 6.27615H222.217V21.9665H220.146V8.28452H213.054V15.2824C213.054 17.8975 212.552 19.6966 211.548 20.6799C210.564 21.6632 209.203 22.092 207.468 21.9665V20.0209C208.681 20.1464 209.571 19.8535 210.135 19.1423C210.7 18.431 210.983 17.1444 210.983 15.2824V6.27615ZM240.098 9.35146V6.27615H242.169V21.9665H240.098V18.8912C238.654 21.1925 236.541 22.3431 233.759 22.3431C231.52 22.3431 229.606 21.5481 228.016 19.9582C226.447 18.3683 225.663 16.4226 225.663 14.1213C225.663 11.82 226.447 9.87442 228.016 8.28452C229.606 6.69461 231.52 5.89958 233.759 5.89958C236.541 5.89958 238.654 7.05015 240.098 9.35146ZM229.522 18.546C230.715 19.7385 232.179 20.3347 233.916 20.3347C235.651 20.3347 237.117 19.7385 238.309 18.546C239.502 17.3117 240.098 15.8368 240.098 14.1213C240.098 12.3849 239.502 10.9205 238.309 9.72803C237.117 8.5147 235.651 7.90795 233.916 7.90795C232.179 7.90795 230.715 8.5147 229.522 9.72803C228.33 10.9205 227.734 12.3849 227.734 14.1213C227.734 15.8368 228.33 17.3117 229.522 18.546ZM253.866 22.3431C251.502 22.3431 249.536 21.5586 247.967 19.9895C246.397 18.3786 245.613 16.4226 245.613 14.1213C245.613 11.7992 246.397 9.85356 247.967 8.28452C249.536 6.69461 251.502 5.89958 253.866 5.89958C255.413 5.89958 256.805 6.27615 258.04 7.02929C259.273 7.76156 260.174 8.75523 260.738 10.0105L259.044 10.9833C258.625 10.0418 257.946 9.29921 257.004 8.75523C256.083 8.19038 255.037 7.90795 253.866 7.90795C252.129 7.90795 250.665 8.5147 249.473 9.72803C248.28 10.9205 247.684 12.3849 247.684 14.1213C247.684 15.8368 248.28 17.3117 249.473 18.546C250.665 19.7385 252.129 20.3347 253.866 20.3347C255.016 20.3347 256.052 20.0628 256.973 19.5188C257.914 18.9748 258.645 18.2217 259.169 17.2594L260.895 18.2636C260.246 19.5188 259.295 20.5125 258.04 21.2448C256.784 21.977 255.393 22.3431 253.866 22.3431ZM271.027 22.3431C268.662 22.3431 266.696 21.5586 265.127 19.9895C263.558 18.3786 262.774 16.4226 262.774 14.1213C262.774 11.7992 263.558 9.85356 265.127 8.28452C266.696 6.69461 268.662 5.89958 271.027 5.89958C272.575 5.89958 273.965 6.27615 275.2 7.02929C276.435 7.76156 277.334 8.75523 277.899 10.0105L276.204 10.9833C275.786 10.0418 275.106 9.29921 274.165 8.75523C273.244 8.19038 272.199 7.90795 271.027 7.90795C269.29 7.90795 267.826 8.5147 266.633 9.72803C265.441 10.9205 264.845 12.3849 264.845 14.1213C264.845 15.8368 265.441 17.3117 266.633 18.546C267.826 19.7385 269.29 20.3347 271.027 20.3347C272.177 20.3347 273.212 20.0628 274.133 19.5188C275.075 18.9748 275.808 18.2217 276.33 17.2594L278.056 18.2636C277.408 19.5188 276.456 20.5125 275.2 21.2448C273.945 21.977 272.553 22.3431 271.027 22.3431ZM283.1 12.2385H287.4C288.843 12.2385 290.078 12.6987 291.102 13.6192C292.129 14.5188 292.64 15.6799 292.64 17.1025C292.64 18.546 292.129 19.7176 291.102 20.6172C290.12 21.5167 288.885 21.9665 287.4 21.9665H281.029V6.27615H283.1V12.2385ZM294.837 21.9665V6.27615H296.908V21.9665H294.837ZM283.1 19.9582H287.4C288.3 19.9582 289.053 19.6966 289.659 19.1736C290.266 18.6297 290.569 17.9393 290.569 17.1025C290.569 16.2657 290.266 15.5857 289.659 15.0628C289.053 14.5188 288.3 14.2469 287.4 14.2469H283.1V19.9582ZM73.9791 51.5586C75.6945 52.1862 76.5523 53.41 76.5523 55.2301C76.5523 56.5272 76.113 57.5837 75.2343 58.3996C74.3765 59.2155 73.1737 59.6234 71.6255 59.6234H64V43.9331H70.9979C72.5042 43.9331 73.6758 44.3201 74.5125 45.0941C75.3703 45.8681 75.7992 46.8828 75.7992 48.1381C75.7992 49.7071 75.1924 50.8473 73.9791 51.5586ZM70.9979 45.9414H66.0711V50.7113H70.9979C72.818 50.7113 73.728 49.8954 73.728 48.2636C73.728 47.5313 73.4875 46.9665 73.0063 46.569C72.5461 46.1506 71.8766 45.9414 70.9979 45.9414ZM66.0711 57.6151H71.6255C72.5461 57.6151 73.2468 57.3954 73.728 56.9561C74.2301 56.5167 74.4812 55.8996 74.4812 55.1046C74.4812 54.3515 74.2301 53.7657 73.728 53.3473C73.2468 52.9288 72.5461 52.7197 71.6255 52.7197H66.0711V57.6151ZM105.203 37.6569H107.933V59.6234H105.736V40.9833L98.0481 53.8494H97.7343L90.046 40.9833V59.6234H87.8494V37.6569H90.5795L97.8912 49.8954L105.203 37.6569ZM125.782 57.6464C124.171 59.2155 122.225 60 119.946 60C117.623 60 115.667 59.2155 114.077 57.6464C112.488 56.0565 111.692 54.1004 111.692 51.7782C111.692 49.4561 112.488 47.5105 114.077 45.9414C115.667 44.3515 117.623 43.5565 119.946 43.5565C122.247 43.5565 124.193 44.3515 125.782 45.9414C127.394 47.5105 128.199 49.4561 128.199 51.7782C128.199 54.0795 127.394 56.0355 125.782 57.6464ZM115.552 56.2029C116.745 57.3954 118.209 57.9916 119.946 57.9916C121.683 57.9916 123.146 57.3954 124.339 56.2029C125.531 54.9686 126.128 53.4937 126.128 51.7782C126.128 50.0418 125.531 48.5774 124.339 47.3849C123.146 46.1716 121.683 45.5649 119.946 45.5649C118.209 45.5649 116.745 46.1716 115.552 47.3849C114.36 48.5774 113.764 50.0418 113.764 51.7782C113.764 53.4937 114.36 54.9686 115.552 56.2029ZM138.976 60C136.612 60 134.646 59.2155 133.077 57.6464C131.508 56.0355 130.723 54.0795 130.723 51.7782C130.723 49.4561 131.508 47.5105 133.077 45.9414C134.646 44.3515 136.612 43.5565 138.976 43.5565C140.525 43.5565 141.915 43.933 143.15 44.6862C144.385 45.4185 145.284 46.4121 145.849 47.6674L144.154 48.6402C143.735 47.6987 143.056 46.9561 142.115 46.4121C141.194 45.8473 140.149 45.5649 138.976 45.5649C137.24 45.5649 135.776 46.1716 134.583 47.3849C133.391 48.5774 132.794 50.0418 132.794 51.7782C132.794 53.4937 133.391 54.9686 134.583 56.2029C135.776 57.3954 137.24 57.9916 138.976 57.9916C140.127 57.9916 141.162 57.7197 142.083 57.1757C143.025 56.6317 143.757 55.8786 144.28 54.9163L146.006 55.9205C145.358 57.1757 144.405 58.1694 143.15 58.9017C141.895 59.6339 140.503 60 138.976 60ZM153.247 51.4644L161.657 59.6234H158.895L151.05 52.0607V59.6234H148.979V43.9331H151.05V50.8682L158.519 43.9331H161.343L153.247 51.4644ZM174.465 51.5586C176.18 52.1862 177.038 53.41 177.038 55.2301C177.038 56.5272 176.599 57.5837 175.72 58.3996C174.862 59.2155 173.66 59.6234 172.111 59.6234H164.486V43.9331H171.484C172.99 43.9331 174.162 44.3201 174.998 45.0941C175.857 45.8681 176.285 46.8828 176.285 48.1381C176.285 49.7071 175.678 50.8473 174.465 51.5586ZM171.484 45.9414H166.557V50.7113H171.484C173.304 50.7113 174.214 49.8954 174.214 48.2636C174.214 47.5313 173.974 46.9665 173.492 46.569C173.032 46.1506 172.362 45.9414 171.484 45.9414ZM166.557 57.6151H172.111C173.032 57.6151 173.732 57.3954 174.214 56.9561C174.716 56.5167 174.967 55.8996 174.967 55.1046C174.967 54.3515 174.716 53.7657 174.214 53.3473C173.732 52.9288 173.032 52.7197 172.111 52.7197H166.557V57.6151ZM187.425 43.5565C189.768 43.5565 191.641 44.3829 193.042 46.0356C194.486 47.6674 195.208 49.6025 195.208 51.841C195.208 51.9457 195.187 52.2698 195.145 52.8138H181.369C181.577 54.3828 182.247 55.6381 183.377 56.5795C184.507 57.5209 185.919 57.9916 187.613 57.9916C189.998 57.9916 191.682 57.1025 192.666 55.3243L194.486 56.3912C193.795 57.5209 192.843 58.4101 191.63 59.0586C190.438 59.6862 189.088 60 187.582 60C185.114 60 183.106 59.226 181.557 57.6778C180.008 56.1296 179.235 54.1632 179.235 51.7782C179.235 49.4142 179.999 47.4582 181.526 45.91C183.052 44.341 185.02 43.5565 187.425 43.5565ZM187.425 45.5649C185.793 45.5649 184.424 46.0461 183.314 47.0084C182.227 47.9707 181.577 49.2364 181.369 50.8054H193.074C192.843 49.1317 192.206 47.8451 191.16 46.9456C190.072 46.025 188.826 45.5649 187.425 45.5649ZM208.419 56.0146L217.77 43.9331H219.528V59.6234H217.457V47.5418L208.105 59.6234H206.348V43.9331H208.419V56.0146ZM249.419 37.6569H252.15V59.6234H249.953V40.9833L242.265 53.8494H241.951L234.263 40.9833V59.6234H232.066V37.6569H234.796L242.108 49.8954L249.419 37.6569ZM275.334 56.705C273.137 58.9017 270.449 60 267.269 60C264.088 60 261.401 58.9017 259.204 56.705C257.007 54.4665 255.909 51.7782 255.909 48.6402C255.909 45.4812 257.007 42.8033 259.204 40.6067C261.401 38.3892 264.088 37.2803 267.269 37.2803C270.449 37.2803 273.137 38.3892 275.334 40.6067C277.53 42.8033 278.629 45.4812 278.629 48.6402C278.629 51.7782 277.53 54.4665 275.334 56.705ZM258.106 48.6402C258.106 51.2343 258.984 53.4206 260.742 55.1987C262.499 56.9769 264.675 57.8661 267.269 57.8661C269.862 57.8661 272.039 56.9769 273.796 55.1987C275.553 53.4206 276.432 51.2343 276.432 48.6402C276.432 46.0669 275.553 43.8912 273.796 42.113C272.039 40.3138 269.862 39.4142 267.269 39.4142C264.675 39.4142 262.499 40.3138 260.742 42.113C258.984 43.8912 258.106 46.0669 258.106 48.6402Z" fill="#3B3B3B"/>
</svg>
